<?xml version="1.0" encoding="utf-8"?>
<!-- Generator: Adobe Illustrator 22.0.1, SVG Export Plug-In . SVG Version: 6.00 Build 0)  -->
<svg version="1.1" id="Layer_1" xmlns="http://www.w3.org/2000/svg" xmlns:xlink="http://www.w3.org/1999/xlink" x="0px" y="0px"
	 viewBox="0 0 1409.3 453.5" style="enable-background:new 0 0 1409.3 453.5;" xml:space="preserve">
<style type="text/css">
	.st0{fill:none;}
	.st1{font-family:'BBCReithSans-Light';}
	.st2{font-size:125px;}
	.st3{letter-spacing:9;}
	.st4{font-family:'BBCReithSans-Bold';}
	.st5{font-size:273.5px;}
	.st6{letter-spacing:51;}
	.st7{fill:#009FE3;}
	.st8{fill:#95C11F;}
	.st9{fill:#EA5B0C;}
	.st10{fill:#010202;}
</style>
<rect x="25.5" y="191.2" class="st0" width="604" height="234"/>
<text transform="matrix(1 0 0 1 25.4804 284.3167)" class="st1 st2 st3">News</text>
<rect x="475.5" y="145.6" class="st0" width="373.6" height="402"/>
<text transform="matrix(1 0 0 1 475.4771 349.3397)" class="st4 st5 st6">FL</text>
<polygon points="1343.7,361.3 1301,361.3 1266.4,291.3 1172.4,291.3 1172.4,254 1248,254 1194.7,146.3 1236,146.3 "/>
<polygon class="st7" points="980.6,72.8 980.6,434.7 1073.9,242.6 "/>
<polygon points="1174.7,34 1076.4,236.6 1020,135.3 "/>
<polygon points="975.6,434.7 900.1,312.2 975.6,312.2 "/>
<polygon class="st8" points="975.6,218.1 890.3,72.8 975.6,72.8 "/>
<polygon class="st9" points="932.1,152.6 760.7,34 885.3,72.8 "/>
<polygon class="st10" points="1145.5,105.2 1215.3,104.6 1179.7,34 "/>
<line class="st0" x1="978.5" y1="427.4" x2="978.5" y2="427.4"/>
<line class="st0" x1="980.5" y1="423.4" x2="980.7" y2="423"/>
<line class="st0" x1="999" y1="386.2" x2="999" y2="386.2"/>
</svg>
